<svg width="508" height="508" viewBox="0 0 508 508" fill="none" xmlns="http://www.w3.org/2000/svg">
<g clip-path="url(#clip0_2_3)" filter="url(#filter0_d_2_3)">
<g filter="url(#filter1_d_2_3)">
<rect x="4" width="500" height="500" rx="200" fill="#4A4E69"/>
</g>
<path d="M254 250C233.375 250 215.719 241.84 201.031 225.521C186.344 209.201 179 189.583 179 166.667C179 143.75 186.344 124.132 201.031 107.813C215.719 91.4931 233.375 83.3333 254 83.3333C274.625 83.3333 292.281 91.4931 306.969 107.813C321.656 124.132 329 143.75 329 166.667C329 189.583 321.656 209.201 306.969 225.521C292.281 241.84 274.625 250 254 250ZM104 416.667V358.333C104 346.528 106.734 335.677 112.203 325.781C117.672 315.885 124.938 308.333 134 303.125C153.375 292.361 173.062 284.288 193.062 278.906C213.063 273.524 233.375 270.833 254 270.833C274.625 270.833 294.937 273.524 314.938 278.906C334.938 284.288 354.625 292.361 374 303.125C383.063 308.333 390.328 315.885 395.797 325.781C401.266 335.677 404 346.528 404 358.333V416.667H104ZM141.5 375H366.5V358.333C366.5 354.514 365.641 351.042 363.922 347.917C362.203 344.792 359.938 342.361 357.125 340.625C340.25 331.25 323.219 324.219 306.031 319.531C288.844 314.844 271.5 312.5 254 312.5C236.5 312.5 219.156 314.844 201.969 319.531C184.781 324.219 167.75 331.25 150.875 340.625C148.062 342.361 145.797 344.792 144.078 347.917C142.359 351.042 141.5 354.514 141.5 358.333V375ZM254 208.333C264.313 208.333 273.141 204.253 280.484 196.094C287.828 187.934 291.5 178.125 291.5 166.667C291.5 155.208 287.828 145.399 280.484 137.24C273.141 129.08 264.313 125 254 125C243.687 125 234.859 129.08 227.516 137.24C220.172 145.399 216.5 155.208 216.5 166.667C216.5 178.125 220.172 187.934 227.516 196.094C234.859 204.253 243.687 208.333 254 208.333Z" fill="#F2E9E4"/>
</g>
<defs>
<filter id="filter0_d_2_3" x="0" y="0" width="508" height="508" filterUnits="userSpaceOnUse" color-interpolation-filters="sRGB">
<feFlood flood-opacity="0" result="BackgroundImageFix"/>
<feColorMatrix in="SourceAlpha" type="matrix" values="0 0 0 0 0 0 0 0 0 0 0 0 0 0 0 0 0 0 127 0" result="hardAlpha"/>
<feOffset dy="4"/>
<feGaussianBlur stdDeviation="2"/>
<feComposite in2="hardAlpha" operator="out"/>
<feColorMatrix type="matrix" values="0 0 0 0 0 0 0 0 0 0 0 0 0 0 0 0 0 0 0.25 0"/>
<feBlend mode="normal" in2="BackgroundImageFix" result="effect1_dropShadow_2_3"/>
<feBlend mode="normal" in="SourceGraphic" in2="effect1_dropShadow_2_3" result="shape"/>
</filter>
<filter id="filter1_d_2_3" x="0" y="0" width="508" height="508" filterUnits="userSpaceOnUse" color-interpolation-filters="sRGB">
<feFlood flood-opacity="0" result="BackgroundImageFix"/>
<feColorMatrix in="SourceAlpha" type="matrix" values="0 0 0 0 0 0 0 0 0 0 0 0 0 0 0 0 0 0 127 0" result="hardAlpha"/>
<feOffset dy="4"/>
<feGaussianBlur stdDeviation="2"/>
<feComposite in2="hardAlpha" operator="out"/>
<feColorMatrix type="matrix" values="0 0 0 0 0 0 0 0 0 0 0 0 0 0 0 0 0 0 0.25 0"/>
<feBlend mode="normal" in2="BackgroundImageFix" result="effect1_dropShadow_2_3"/>
<feBlend mode="normal" in="SourceGraphic" in2="effect1_dropShadow_2_3" result="shape"/>
</filter>
<clipPath id="clip0_2_3">
<rect width="500" height="500" fill="white" transform="translate(4)"/>
</clipPath>
</defs>
</svg>
